<svg version="1.1" id="Layer_1" xmlns="http://www.w3.org/2000/svg" xmlns:xlink="http://www.w3.org/1999/xlink" x="0px" y="0px"
	  viewBox="-1093.305 -264.431 1105.42 170.077" width="1105.42" height="170.077">
  <g style="" transform="matrix(0.690174, 0, 0, 0.690174, -293.01474, -102.642471)">
    <path fill="#F8F8F8" opacity="1.000000" stroke="none" d="M -1039.796 -119.834 C -1028.244 -137.068 -1027.426 -156.4 -1027.237 -175.765 C -1027.081 -191.589 -1022.732 -205.714 -1011.469 -217.072 C -996.621 -232.045 -978.479 -237.853 -958.107 -232.414 C -925.466 -223.699 -909.212 -194.106 -918.169 -161.644 C -923.611 -141.919 -943.644 -125.127 -964.114 -123.286 C -976.207 -122.198 -988.407 -121.934 -1000.404 -120.218 C -1034.606 -115.324 -1065.641 -80.594 -1067.334 -46.102 C -1067.684 -38.964 -1067.765 -31.742 -1068.966 -24.729 C -1072.73 -2.751 -1092.359 12.671 -1115.035 11.987 C -1137.572 11.307 -1156.229 -5.332 -1159.137 -27.345 C -1162.738 -54.602 -1142.29 -78.652 -1114.692 -79.34 C -1094.401 -79.846 -1075.188 -83.786 -1059.697 -97.836 C -1052.496 -104.366 -1046.535 -112.262 -1039.796 -119.834 Z"></path>
    <path fill="#F8F8F8" opacity="1.000000" stroke="none" d="M -1006.2 -43.875 C -996.873 -80.582 -952.811 -90.55 -928.902 -65.859 C -916.54 -53.092 -912.565 -37.651 -917.545 -20.861 C -922.564 -3.939 -934.019 7.193 -951.86 10.887 C -984.93 17.735 -1013.153 -10.442 -1006.2 -43.875 Z"></path>
    <path fill="#F8F8F8" opacity="1.000000" stroke="none" d="M -1158.229 -177.451 C -1164.126 -201.06 -1149.269 -226.131 -1125.456 -232.02 C -1099.56 -238.423 -1075.119 -223.641 -1069.275 -198.91 C -1062.536 -170.394 -1081.393 -148.976 -1100.808 -143.875 C -1127.273 -136.921 -1150.684 -150.653 -1158.229 -177.451 Z"></path>
  </g>
  <g>
    <path fill="#F8F8F8" opacity="1.000000" stroke="none" d="M -864.269 -227.177 C -864.269 -229.981 -864.269 -232.293 -864.269 -235.237 C -859.098 -235.237 -854.163 -235.315 -849.231 -235.221 C -838.42 -235.014 -827.534 -235.434 -816.819 -234.292 C -800.659 -232.57 -790.823 -224.039 -788.374 -211.294 C -785.191 -194.727 -790.454 -183.395 -806.038 -174.173 C -798.635 -160.212 -791.21 -146.212 -783.276 -131.25 C -791.114 -131.25 -798.145 -131.13 -805.163 -131.386 C -806.153 -131.422 -807.356 -133.145 -807.984 -134.338 C -813.413 -144.647 -818.835 -154.963 -824.015 -165.399 C -825.4 -168.189 -827.024 -169.32 -830.14 -169.115 C -834.26 -168.845 -838.41 -169.048 -842.959 -169.048 C -842.959 -156.438 -842.959 -144.185 -842.959 -131.583 C -850.103 -131.583 -856.843 -131.583 -864.269 -131.583 C -864.269 -163.202 -864.269 -194.944 -864.269 -227.177 M -843.212 -211.605 C -843.212 -203.194 -843.212 -194.784 -843.212 -186.248 C -836.137 -186.248 -829.807 -186.07 -823.491 -186.291 C -815.019 -186.588 -809.523 -192.032 -808.886 -200.353 C -808.166 -209.747 -812.283 -216.213 -821.08 -217.305 C -828.217 -218.19 -835.552 -217.484 -843.212 -217.484 C -843.212 -215.827 -843.212 -214.196 -843.212 -211.605 Z"></path>
    <path fill="#F8F8F8" opacity="1.000000" stroke="none" d="M -569.814 -238.828 C -569.245 -239.936 -568.693 -241.128 -568.115 -241.14 C -562 -241.276 -555.881 -241.225 -549.547 -241.225 C -549.547 -204.517 -549.547 -168.265 -549.547 -131.619 C -555.352 -131.619 -561.253 -131.619 -567.6 -131.619 C -567.915 -133.596 -568.271 -135.835 -568.701 -138.54 C -569.621 -138.014 -570.464 -137.691 -571.112 -137.138 C -584.099 -126.068 -601.862 -128.437 -611.46 -142.542 C -620.989 -156.547 -621.09 -183.713 -611.665 -197.866 C -602.482 -211.656 -585.142 -214.339 -572.143 -203.983 C -571.682 -203.615 -571.218 -203.251 -569.819 -202.145 C -569.819 -214.917 -569.819 -226.641 -569.814 -238.828 M -576.239 -148.29 C -571.421 -150.724 -569.428 -154.477 -569.72 -160.002 C -570.104 -167.294 -569.998 -174.627 -569.753 -181.931 C -569.575 -187.248 -572.276 -190.323 -576.709 -192.279 C -584.966 -195.923 -593.081 -192.56 -596.076 -184.009 C -598.828 -176.153 -598.968 -168.012 -597.25 -159.91 C -594.91 -148.881 -588.086 -144.953 -576.239 -148.29 Z"></path>
    <path fill="#F8F8F8" opacity="1.000000" stroke="none" d="M -631.481 -182.004 C -631.48 -171.876 -631.725 -162.213 -631.399 -152.57 C -631.161 -145.52 -630.172 -138.496 -629.496 -131.228 C -634.684 -131.228 -640.726 -130.745 -646.611 -131.496 C -648.61 -131.751 -650.213 -135.117 -652.242 -137.329 C -659.178 -130.965 -668.055 -128.797 -678.136 -131.132 C -688.552 -133.545 -695.7 -141.182 -696.683 -151.313 C -697.697 -161.755 -692.674 -170.636 -682.259 -174.385 C -676.129 -176.591 -669.387 -177.222 -662.862 -178.154 C -659.465 -178.639 -655.941 -178.239 -652.534 -178.239 C -651.097 -188.078 -653.588 -193.204 -660.362 -194.839 C -667.48 -196.556 -672.597 -193.353 -675.301 -185.375 C -681.706 -185.375 -688.16 -185.375 -694.965 -185.375 C -694.904 -192.659 -691.732 -198.163 -686.404 -202.557 C -675.415 -211.62 -655.257 -212.894 -643.13 -205.362 C -634.631 -200.083 -631.522 -192.061 -631.481 -182.004 M -676.323 -153.937 C -675.519 -152.176 -675.106 -150.042 -673.842 -148.72 C -668.996 -143.646 -655.257 -146.209 -652.413 -152.576 C -652.089 -153.301 -652.015 -154.184 -652.005 -154.997 C -651.963 -158.6 -651.987 -162.204 -651.987 -166.231 C -655.195 -166.231 -657.978 -166.25 -660.761 -166.223 C -662.086 -166.21 -663.429 -166.232 -664.732 -166.027 C -672.368 -164.824 -675.491 -161.757 -676.323 -153.937 Z"></path>
    <path fill="#F8F8F8" opacity="1.000000" stroke="none" d="M -319.228 -130.108 C -334.168 -132.358 -345.296 -139.508 -349.622 -153.832 C -354.466 -169.874 -353.484 -185.819 -341.729 -198.987 C -332.042 -209.839 -319.188 -211.985 -305.556 -208.373 C -293.046 -205.059 -285.944 -196.15 -283.631 -183.703 C -282.399 -177.073 -282.304 -170.232 -281.65 -162.98 C -298.613 -162.98 -314.694 -162.98 -331.232 -162.98 C -330.29 -155.644 -326.855 -150.717 -320.591 -147.944 C -312.58 -144.398 -302.716 -146.725 -293.571 -154.301 C -290.395 -150.79 -287.201 -147.259 -283.855 -143.559 C -293.093 -132.136 -305.182 -129.139 -319.228 -130.108 M -308.315 -176.844 C -306.385 -176.844 -304.455 -176.844 -302.556 -176.844 C -302.129 -187.245 -306.377 -192.576 -314.993 -193.057 C -324.159 -193.569 -330.155 -187.495 -330.678 -176.844 C -323.544 -176.844 -316.422 -176.844 -308.315 -176.844 Z"></path>
    <path fill="#F8F8F8" opacity="1.000000" stroke="none" d="M -705.725 -178.608 C -705.666 -173.374 -705.666 -168.586 -705.666 -163.387 C -721.753 -163.387 -737.833 -163.387 -754.3 -163.387 C -753.626 -156.24 -750.335 -151.115 -744.295 -148.67 C -734.063 -144.527 -724.781 -146.934 -716.805 -154.778 C -713.529 -151.162 -710.414 -147.722 -707.013 -143.966 C -716.408 -132.404 -728.768 -128.68 -742.605 -130.685 C -768.29 -134.407 -780.715 -156.168 -773.457 -183.505 C -767.622 -205.485 -745.134 -216.419 -724.329 -207.213 C -712.212 -201.852 -707.361 -191.475 -705.725 -178.608 M -726.657 -185.992 C -730.562 -192.649 -736.114 -195.008 -743.43 -193.118 C -749.366 -191.584 -753.772 -184.83 -753.636 -177.569 C -744.258 -177.569 -734.886 -177.569 -725.089 -177.569 C -725.563 -180.398 -725.969 -182.828 -726.657 -185.992 Z"></path>
    <path fill="#F8F8F8" opacity="1.000000" stroke="none" d="M -469.81 -208.224 C -469.275 -207.144 -468.819 -205.951 -469.139 -205.028 C -479.061 -176.423 -489.018 -147.831 -499.103 -119.284 C -500.254 -116.026 -501.873 -112.828 -503.831 -109.984 C -507.38 -104.828 -511.943 -101.401 -518.858 -102.143 C -523.107 -102.6 -527.446 -102.228 -532.003 -102.228 C -532.003 -107.318 -532.003 -112.041 -532.003 -117.023 C -530.421 -117.095 -528.969 -117.174 -527.517 -117.224 C -518.118 -117.546 -511.934 -126.413 -515.008 -135.228 C -522.839 -157.692 -530.697 -180.146 -538.539 -202.607 C -539.133 -204.308 -539.682 -206.025 -540.35 -208.029 C -532.908 -208.029 -525.827 -208.029 -518.598 -208.029 C -513.941 -192.564 -509.32 -177.219 -504.699 -161.874 C -504.34 -161.887 -503.981 -161.9 -503.622 -161.913 C -499.036 -177.242 -494.449 -192.572 -489.762 -208.237 C -483.193 -208.237 -476.722 -208.237 -469.81 -208.224 Z"></path>
    <path fill="#F8F8F8" opacity="1.000000" stroke="none" d="M -91.115 -131.237 C -102.361 -134.515 -109.777 -141.537 -113.615 -152.003 C -117.82 -163.468 -117.939 -175.225 -113.886 -186.772 C -108.468 -202.212 -95.268 -210.553 -78.087 -209.833 C -62.166 -209.166 -49.823 -199.521 -45.622 -184.222 C -43.062 -174.898 -42.935 -165.46 -45.391 -156.082 C -50.433 -136.828 -66.963 -127.856 -85.829 -130.201 C -87.476 -130.406 -89.102 -130.78 -91.115 -131.237 M -84.524 -192.743 C -89.34 -191.269 -92.543 -188.024 -94.084 -183.347 C -96.972 -174.586 -97.154 -165.658 -94.405 -156.865 C -92.251 -149.975 -87.078 -146.416 -80.268 -146.381 C -73.267 -146.346 -67.348 -149.968 -66.09 -157.242 C -64.787 -164.776 -64.346 -172.818 -65.512 -180.33 C -67.041 -190.185 -73.316 -193.737 -84.524 -192.743 Z"></path>
    <path fill="#F8F8F8" opacity="1.000000" stroke="none" d="M -217.669 -130.839 C -220.129 -130.839 -222.101 -130.839 -224.663 -130.839 C -224.663 -133.089 -224.663 -135.023 -224.663 -136.957 C -224.664 -151.444 -224.61 -165.932 -224.689 -180.419 C -224.728 -187.531 -226.741 -190.891 -231.475 -192.454 C -237.881 -194.568 -245.697 -192.492 -249.012 -187.425 C -250.008 -185.903 -250.367 -183.721 -250.378 -181.837 C -250.479 -165.031 -250.437 -148.225 -250.437 -131.129 C -257.066 -131.129 -263.501 -131.129 -270.301 -131.129 C -270.301 -156.396 -270.301 -181.771 -270.301 -207.497 C -264.372 -207.497 -258.296 -207.497 -251.771 -207.497 C -251.446 -205.185 -251.089 -202.648 -250.617 -199.287 C -244.271 -206.57 -236.735 -210.086 -227.581 -209.855 C -215.659 -209.555 -208.288 -203.618 -205.588 -192.019 C -205.249 -190.563 -204.8 -189.078 -204.796 -187.606 C -204.742 -168.836 -204.76 -150.066 -204.76 -130.839 C -208.929 -130.839 -213.055 -130.839 -217.669 -130.839 Z"></path>
    <path fill="#F8F8F8" opacity="1.000000" stroke="none" d="M -385.724 -188.843 C -385.724 -169.379 -385.724 -150.416 -385.724 -131.147 C -392.737 -131.147 -399.485 -131.147 -406.808 -131.147 C -406.808 -159.731 -406.808 -188.42 -406.808 -217.528 C -417.462 -217.528 -427.559 -217.528 -437.988 -217.528 C -437.988 -223.344 -437.988 -228.749 -437.988 -234.502 C -410.18 -234.502 -382.331 -234.502 -354.248 -234.502 C -354.248 -228.974 -354.248 -223.567 -354.248 -217.664 C -364.721 -217.664 -374.963 -217.664 -385.724 -217.664 C -385.724 -207.9 -385.724 -198.621 -385.724 -188.843 Z"></path>
    <path fill="#F8F8F8" opacity="1.000000" stroke="none" d="M -133.137 -200.428 C -129.118 -196.088 -127.163 -191.293 -127.102 -185.34 C -133.746 -185.34 -140.297 -185.34 -146.878 -185.34 C -149.676 -193.835 -154.162 -196.527 -162.974 -194.811 C -166.919 -194.042 -169.713 -191.857 -170.222 -187.659 C -170.705 -183.672 -168.218 -181.256 -164.887 -180.179 C -159.537 -178.449 -153.933 -177.507 -148.584 -175.774 C -144.202 -174.355 -139.645 -172.862 -135.845 -170.367 C -124.325 -162.803 -123.652 -146.753 -134.12 -137.788 C -147.031 -126.731 -172.075 -127.211 -184.487 -138.823 C -189.265 -143.293 -192.2 -148.682 -192.19 -155.647 C -185.881 -155.647 -179.759 -155.647 -173.651 -155.647 C -170.067 -146.038 -164.12 -142.765 -153.958 -144.882 C -150.308 -145.643 -147.369 -147.413 -146.747 -151.465 C -146.1 -155.679 -148.566 -158.185 -152.123 -159.395 C -157.133 -161.098 -162.374 -162.123 -167.386 -163.824 C -171.756 -165.307 -176.26 -166.811 -180.155 -169.202 C -191.838 -176.374 -193.35 -191.138 -183.592 -200.849 C -175.202 -209.198 -164.638 -210.651 -153.522 -209.518 C -145.943 -208.745 -138.92 -206.318 -133.137 -200.428 Z"></path>
    <path fill="#F8F8F8" opacity="1.000000" stroke="none" d="M -5.446 -205.686 C 0.134 -209.748 5.816 -211.012 12.115 -208.77 C 12.115 -202.259 12.115 -195.995 12.115 -190.1 C 7.218 -189.663 2.555 -189.7 -1.893 -188.742 C -8.077 -187.408 -10.585 -183.669 -10.589 -177.315 C -10.599 -162.346 -10.604 -147.377 -10.619 -132.408 C -10.62 -132.09 -10.726 -131.772 -10.837 -131.149 C -17.332 -131.149 -23.882 -131.149 -30.677 -131.149 C -30.677 -156.579 -30.677 -181.94 -30.677 -207.572 C -24.401 -207.572 -18.163 -207.572 -11.853 -207.572 C -11.577 -205.172 -11.316 -202.896 -10.975 -199.923 C -8.954 -202.061 -7.345 -203.762 -5.446 -205.686 Z"></path>
    <path fill="transparent" opacity="1.000000" stroke="none" d="M -843.212 -212.085 C -843.212 -214.196 -843.212 -215.827 -843.212 -217.484 C -835.552 -217.484 -828.217 -218.19 -821.08 -217.305 C -812.283 -216.213 -808.166 -209.747 -808.886 -200.353 C -809.523 -192.032 -815.019 -186.588 -823.491 -186.291 C -829.807 -186.07 -836.137 -186.248 -843.212 -186.248 C -843.212 -194.784 -843.212 -203.194 -843.212 -212.085 Z"></path>
    <path fill="transparent" opacity="1.000000" stroke="none" d="M -576.626 -148.158 C -588.086 -144.953 -594.91 -148.881 -597.25 -159.91 C -598.968 -168.012 -598.828 -176.153 -596.076 -184.009 C -593.081 -192.56 -584.966 -195.923 -576.709 -192.279 C -572.276 -190.323 -569.575 -187.248 -569.753 -181.931 C -569.998 -174.627 -570.104 -167.294 -569.72 -160.002 C -569.428 -154.477 -571.421 -150.724 -576.626 -148.158 Z"></path>
    <path fill="transparent" opacity="1.000000" stroke="none" d="M -676.326 -154.344 C -675.491 -161.757 -672.368 -164.824 -664.732 -166.027 C -663.429 -166.232 -662.086 -166.21 -660.761 -166.223 C -657.978 -166.25 -655.195 -166.231 -651.987 -166.231 C -651.987 -162.204 -651.963 -158.6 -652.005 -154.997 C -652.015 -154.184 -652.089 -153.301 -652.413 -152.576 C -655.257 -146.209 -668.996 -143.646 -673.842 -148.72 C -675.106 -150.042 -675.519 -152.176 -676.326 -154.344 Z"></path>
    <path fill="transparent" opacity="1.000000" stroke="none" d="M -726.516 -185.625 C -725.969 -182.828 -725.563 -180.398 -725.089 -177.569 C -734.886 -177.569 -744.258 -177.569 -753.636 -177.569 C -753.772 -184.83 -749.366 -191.584 -743.43 -193.118 C -736.114 -195.008 -730.562 -192.649 -726.516 -185.625 Z"></path>
  </g>
</svg>